<svg width="98" height="19" fill="none" xmlns="http://www.w3.org/2000/svg"><path d="M4.075 14.7h6.675V18H.625V.5h3.45v14.2zm26.036 1.025c-1.767 1.75-3.917 2.625-6.45 2.625-2.534 0-4.684-.875-6.45-2.625-1.75-1.767-2.625-3.925-2.625-6.475s.875-4.7 2.625-6.45C18.977 1.033 21.127.15 23.66.15s4.683.883 6.45 2.65c1.766 1.75 2.65 3.9 2.65 6.45 0 2.55-.884 4.708-2.65 6.475zm-10.475-2.35c1.083 1.067 2.425 1.6 4.025 1.6 1.6 0 2.941-.533 4.025-1.6 1.083-1.083 1.625-2.458 1.625-4.125 0-1.667-.542-3.042-1.625-4.125C26.602 4.042 25.26 3.5 23.66 3.5c-1.6 0-2.942.542-4.025 1.625-1.084 1.083-1.625 2.458-1.625 4.125 0 1.667.541 3.042 1.625 4.125zM56.11 8.6v1.35c0 2.5-.8 4.525-2.4 6.075-1.6 1.55-3.667 2.325-6.2 2.325-2.7 0-4.942-.875-6.726-2.625-1.766-1.767-2.65-3.917-2.65-6.45 0-2.55.876-4.708 2.626-6.475C42.526 1.033 44.71.15 47.31.15c1.633 0 3.124.375 4.474 1.125 1.35.733 2.4 1.717 3.15 2.95l-2.95 1.7c-.416-.717-1.05-1.3-1.9-1.75-.833-.45-1.766-.675-2.8-.675-1.666 0-3.041.55-4.124 1.65-1.067 1.083-1.6 2.458-1.6 4.125 0 1.65.541 3.017 1.624 4.1 1.1 1.067 2.55 1.6 4.35 1.6 1.334 0 2.434-.292 3.3-.875a4.453 4.453 0 001.8-2.45h-5.3V8.6h8.776zm20.929 7.125c-1.767 1.75-3.917 2.625-6.45 2.625-2.534 0-4.684-.875-6.45-2.625-1.75-1.767-2.626-3.925-2.626-6.475s.875-4.7 2.625-6.45C65.906 1.033 68.056.15 70.59.15s4.684.883 6.45 2.65c1.767 1.75 2.65 3.9 2.65 6.45 0 2.55-.883 4.708-2.65 6.475zm-10.476-2.35c1.084 1.067 2.426 1.6 4.026 1.6 1.6 0 2.941-.533 4.025-1.6 1.083-1.083 1.625-2.458 1.625-4.125 0-1.667-.542-3.042-1.625-4.125C73.53 4.042 72.19 3.5 70.59 3.5s-2.942.542-4.026 1.625C65.481 6.208 64.94 7.583 64.94 9.25c0 1.667.541 3.042 1.624 4.125zm24.64 4.975c-1.733 0-3.191-.383-4.374-1.15a6.282 6.282 0 01-2.5-3.175l2.95-1.725c.683 1.783 2.025 2.675 4.025 2.675.966 0 1.674-.175 2.124-.525.45-.35.675-.792.675-1.325 0-.617-.275-1.092-.825-1.425-.55-.35-1.533-.725-2.95-1.125a19.316 19.316 0 01-2-.7 9.556 9.556 0 01-1.624-.925c-.534-.4-.942-.9-1.225-1.5-.284-.6-.425-1.3-.425-2.1 0-1.583.558-2.842 1.674-3.775C87.864.625 89.222.15 90.805.15c1.416 0 2.658.35 3.724 1.05 1.084.683 1.925 1.642 2.526 2.875l-2.9 1.675c-.7-1.5-1.817-2.25-3.35-2.25-.717 0-1.284.167-1.7.5-.4.317-.6.733-.6 1.25 0 .55.225 1 .675 1.35.466.333 1.35.7 2.65 1.1.533.167.933.3 1.2.4.283.083.658.225 1.124.425.484.183.85.358 1.1.525.267.167.567.392.9.675.334.283.584.575.75.875.184.3.334.667.45 1.1.134.417.2.875.2 1.375 0 1.617-.591 2.9-1.775 3.85-1.166.95-2.691 1.425-4.575 1.425z" fill="#fff"/></svg>